<?xml version="1.0" encoding="iso-8859-1"?>
<!-- Generator: Adobe Illustrator 19.0.0, SVG Export Plug-In . SVG Version: 6.00 Build 0)  -->
<svg version="1.1" id="Capa_1" xmlns="http://www.w3.org/2000/svg" xmlns:xlink="http://www.w3.org/1999/xlink" x="0px" y="0px"
	 viewBox="0 0 512 512" style="enable-background:new 0 0 512 512;" xml:space="preserve">
<path style="fill:#A05D35;" d="M153.601,213.333c56.405,0.145,102.255-45.466,102.4-101.871c0-0.179,0-0.35,0-0.529
	c-0.077,56.482,45.645,102.323,102.127,102.4c0.094,0,0.179,0,0.273,0c18.85,0,34.133,15.283,34.133,34.133v-102.4
	c0-75.409-61.124-136.533-136.533-136.533S119.467,69.658,119.467,145.067v102.4C119.467,228.617,134.751,213.333,153.601,213.333z"
	/>
<g>
	<path style="fill:#F9F5F2;" d="M119.467,247.467c0,18.85,15.283,34.133,34.133,34.133v-68.267
		C134.751,213.333,119.467,228.617,119.467,247.467z"/>
	<path style="fill:#F9F5F2;" d="M358.401,213.333V281.6c18.85,0,34.133-15.283,34.133-34.133S377.251,213.333,358.401,213.333z"/>
	<path style="fill:#F9F5F2;" d="M285.953,183.381c-19.26-19.183-30.046-45.269-29.952-72.448
		c0.077,56.482-45.645,102.323-102.127,102.4c-0.094,0-0.179,0-0.273,0v110.933c0,18.85,15.283,34.133,34.133,34.133h136.533
		c18.85,0,34.133-15.283,34.133-34.133V213.333C331.231,213.393,305.153,202.607,285.953,183.381z"/>
	<path style="fill:#F9F5F2;" d="M221.867,435.2h68.267c18.825-0.06,34.074-15.309,34.133-34.133V358.4H187.734v42.667
		C187.794,419.891,203.043,435.14,221.867,435.2z"/>
</g>
<g>
	<path style="fill:#FDCA6E;" d="M405.59,384h-13.056v68.267l8.533,51.2h85.333l-13.995-65.536
		C465.571,406.485,437.769,384.043,405.59,384z"/>
	<path style="fill:#FDCA6E;" d="M358.401,452.267V384h-34.133v17.067c-0.06,18.825-15.309,34.074-34.133,34.133h-68.267
		c-18.825-0.06-34.074-15.309-34.133-34.133V384h-34.133v68.267H358.401z"/>
	<path style="fill:#FDCA6E;" d="M119.467,384h-13.056c-32.179,0.043-59.981,22.485-66.816,53.931l-13.995,65.536h85.333l8.533-51.2
		V384z"/>
</g>
<polygon style="fill:#24537E;" points="392.534,452.267 392.534,384 358.401,384 358.401,452.267 153.601,452.267 153.601,384 
	119.467,384 119.467,452.267 110.934,503.467 401.067,503.467 "/>
<g>
	<circle style="fill:#231F20;" cx="307.201" cy="230.4" r="17.067"/>
	<circle style="fill:#231F20;" cx="204.801" cy="230.4" r="17.067"/>
	<path style="fill:#231F20;" d="M480.752,436.113c-7.825-35.277-39.023-60.45-75.162-60.646h-72.789v-9.387
		c19.849-4.079,34.108-21.547,34.133-41.813V289.28c19.849-4.079,34.108-21.547,34.133-41.813v-102.4
		C401.067,64.947,336.12,0,256.001,0S110.934,64.947,110.934,145.067v102.4c0.026,20.267,14.285,37.734,34.133,41.813v34.987
		c0.026,20.267,14.285,37.734,34.133,41.813v9.387h-72.789c-36.147,0.196-67.354,25.387-75.162,60.681l-13.995,65.536
		c-0.981,4.608,1.954,9.139,6.562,10.129c0.589,0.128,1.186,0.188,1.783,0.188h460.8c4.71,0,8.533-3.823,8.533-8.533
		c0-0.597-0.06-1.195-0.188-1.783L480.752,436.113z M128.001,443.733v-51.2h17.067v51.2H128.001z M126.695,460.8h258.611
		l5.692,34.133H121.003L126.695,460.8z M384.001,443.733h-17.067v-51.2h17.067V443.733z M349.867,392.533v51.2h-59.733
		c23.552-0.026,42.641-19.115,42.667-42.667v-8.533H349.867z M196.267,366.933h119.467v34.133c0,14.14-11.46,25.6-25.6,25.6h-68.267
		c-14.14,0-25.6-11.46-25.6-25.6V366.933z M366.934,271.607v-48.171c0.282,0.102,0.58,0.162,0.853,0.265
		c0.452,0.179,0.853,0.393,1.331,0.597c0.964,0.444,1.903,0.956,2.799,1.519c0.41,0.256,0.853,0.503,1.212,0.777
		c1.015,0.725,1.98,1.519,2.884,2.381c0.179,0.171,0.384,0.316,0.563,0.495c1.041,1.058,1.988,2.202,2.842,3.413
		c0.23,0.341,0.427,0.717,0.649,1.067c0.58,0.93,1.109,1.894,1.57,2.884c0.213,0.469,0.41,0.947,0.589,1.434
		c0.393,0.998,0.708,2.031,0.956,3.072c0.119,0.469,0.256,0.922,0.341,1.399c0.307,1.553,0.469,3.14,0.478,4.727
		C383.992,258.313,377.157,267.981,366.934,271.607z M128.001,145.067c0-70.69,57.31-128,128-128s128,57.31,128,128v68.267
		c-0.333-0.256-0.717-0.435-1.067-0.674c-0.683-0.486-1.408-0.913-2.125-1.357c-1.459-0.913-2.97-1.732-4.523-2.458
		c-0.853-0.384-1.638-0.742-2.475-1.075c-1.673-0.631-3.379-1.161-5.12-1.587c-0.794-0.196-1.562-0.444-2.372-0.597
		c-2.611-0.512-5.257-0.768-7.919-0.785c-51.686,0.154-93.713-41.626-93.867-93.321c0-0.179,0-0.367,0-0.546
		c0-4.71-3.823-8.533-8.533-8.533c-4.71,0-8.533,3.823-8.533,8.533c0.077,51.763-41.83,93.79-93.594,93.867
		c-0.094,0-0.179,0-0.273,0c-2.662,0.017-5.308,0.29-7.919,0.802c-0.811,0.154-1.579,0.401-2.372,0.597
		c-1.741,0.427-3.447,0.956-5.12,1.587c-0.853,0.333-1.655,0.691-2.475,1.075c-1.553,0.725-3.063,1.545-4.523,2.458
		c-0.717,0.444-1.442,0.853-2.125,1.357c-0.35,0.239-0.734,0.418-1.067,0.674L128.001,145.067z M128.001,247.467
		c0.009-1.579,0.171-3.157,0.478-4.702c0.085-0.478,0.222-0.93,0.341-1.399c0.256-1.05,0.572-2.074,0.956-3.081
		c0.188-0.478,0.375-0.956,0.589-1.417c0.461-0.998,0.981-1.963,1.57-2.893c0.222-0.35,0.418-0.725,0.649-1.067
		c0.853-1.212,1.801-2.355,2.842-3.413c0.179-0.179,0.384-0.324,0.563-0.495c0.905-0.862,1.869-1.655,2.884-2.381
		c0.393-0.273,0.802-0.521,1.203-0.777c0.905-0.563,1.843-1.075,2.807-1.519c0.435-0.205,0.853-0.418,1.331-0.597
		c0.273-0.102,0.572-0.162,0.853-0.265v48.171C134.836,267.998,128.001,258.321,128.001,247.467z M162.134,324.267V221.551
		c0.461,0,0.913-0.128,1.374-0.162c1.357-0.119,2.705-0.324,4.053-0.486c2.116-0.265,4.267-0.546,6.315-0.93
		c1.391-0.256,2.773-0.572,4.156-0.853c2.005-0.444,3.994-0.93,5.973-1.485c1.382-0.393,2.748-0.853,4.113-1.263
		c1.937-0.623,3.84-1.306,5.734-2.039c1.331-0.521,2.654-1.05,3.968-1.613c1.877-0.853,3.721-1.707,5.547-2.62
		c1.254-0.631,2.56-1.246,3.746-1.929c1.86-1.024,3.661-2.142,5.461-3.277c1.126-0.708,2.278-1.382,3.413-2.133
		c1.929-1.306,3.78-2.739,5.632-4.173c0.896-0.7,1.835-1.348,2.714-2.082c2.688-2.219,5.299-4.565,7.791-7.066
		c2.21-2.21,4.267-4.514,6.298-6.878c0.623-0.725,1.186-1.493,1.775-2.227c1.34-1.707,2.654-3.354,3.891-5.12
		c0.674-0.939,1.297-1.894,1.937-2.859c1.075-1.613,2.116-3.243,3.106-4.915c0.623-1.05,1.22-2.108,1.801-3.174
		c0.401-0.717,0.853-1.408,1.22-2.133h7.782c0.375,0.725,0.853,1.417,1.22,2.142c0.58,1.067,1.186,2.125,1.809,3.174
		c0.981,1.707,2.022,3.294,3.098,4.907c0.64,0.956,1.263,1.92,1.937,2.867c1.237,1.707,2.56,3.413,3.891,5.12
		c0.597,0.734,1.152,1.493,1.766,2.219c2.005,2.364,4.096,4.668,6.306,6.878c2.492,2.5,5.12,4.847,7.791,7.066
		c0.853,0.734,1.818,1.382,2.714,2.082c1.852,1.434,3.703,2.867,5.632,4.173c1.101,0.751,2.253,1.425,3.413,2.133
		c1.801,1.135,3.601,2.253,5.461,3.277c1.229,0.683,2.492,1.297,3.746,1.929c1.826,0.913,3.669,1.801,5.547,2.62
		c1.314,0.563,2.637,1.092,3.968,1.613c1.894,0.734,3.797,1.417,5.734,2.039c1.365,0.444,2.731,0.853,4.113,1.263
		c1.971,0.555,3.959,1.041,5.973,1.485c1.382,0.307,2.765,0.623,4.156,0.853c2.091,0.384,4.198,0.666,6.315,0.93
		c1.348,0.162,2.697,0.367,4.053,0.486c0.461,0,0.913,0.128,1.374,0.162v102.716c0,14.14-11.46,25.6-25.6,25.6H187.734
		C173.594,349.867,162.134,338.406,162.134,324.267z M221.867,443.733h-59.733v-51.2h17.067v8.533
		C179.226,424.619,198.315,443.708,221.867,443.733z M47.932,439.748c6.076-27.46,30.353-47.061,58.479-47.215h4.523v59.034
		l-7.228,43.366H36.148L47.932,439.748z M408.295,494.933l-7.228-43.366v-59.034h4.523c28.117,0.154,52.386,19.738,58.479,47.181
		l11.785,55.219H408.295z"/>
</g>
<g>
</g>
<g>
</g>
<g>
</g>
<g>
</g>
<g>
</g>
<g>
</g>
<g>
</g>
<g>
</g>
<g>
</g>
<g>
</g>
<g>
</g>
<g>
</g>
<g>
</g>
<g>
</g>
<g>
</g>
</svg>
